<?xml version="1.0" encoding="UTF-8"?>
<svg id="Layer_2" data-name="Layer 2" xmlns="http://www.w3.org/2000/svg" viewBox="0 0 971.97 971.68">
  <defs>
    <style>
      .cls-1 {
        fill: #fff;
      }
    </style>
  </defs>
  <g id="Layer_1-2" data-name="Layer 1">
    <path class="cls-1" d="M943.71,238.33c-4.8-26.16-30.48-52.08-57.12-56.88-66.6-11.62-133.2-19.64-199.79-24.09l-51.27-51.27c-3.36-31.2-9.6-63.36-15.84-89.28C578.4,6,536.4,1.44,494.88,0c-9.12,27.84-16.32,56.4-22.32,84.72-17.04,0-33.6,2.64-50.16,5.04-16.8,1.68-32.64,6.72-48.96,10.32-18.96-24.96-39.12-48-60.96-71.04-38.4,12.72-74.16,31.2-108,52.56,7.44,29.52,17.28,59.76,28.32,88.08-12,8.64-23.04,18.48-33.84,28.8l-.24,.24c-10.56,10.8-20.16,21.84-28.8,33.84-28.56-10.8-58.56-20.88-88.08-28.32-21.12,33.84-40.08,69.6-52.56,108,22.8,21.84,46.08,42,70.8,60.96-3.36,16.32-8.4,32.4-10.08,48.96-2.4,16.56-4.8,33.12-5.04,50.16-28.32,5.76-56.88,13.2-84.96,22.56,1.68,41.52,6.24,83.28,16.8,124.56,30.96,6.96,62.88,12.96,89.52,15.84l51.26,51.26c4.43,66.61,12.46,133.22,24.12,199.78,2.4,13.3,10.06,26.37,20.4,36.71,0,0,0,0,0,0,10.35,10.36,23.39,18,36.48,20.4,149.52,26.16,298.8,34.08,448.32,24,66.48-4.32,133.2-12.48,199.68-24,26.64-4.8,52.32-30.48,57.12-57.12,37.68-216,37.68-432,0-648Zm-94.8,596.64c-.72,6.96-6.72,12.96-13.68,13.68-19.92,1.92-39.84,3.6-59.76,5.04-35.28,2.88-70.56,5.04-106.08,6-34.03,1.55-68.06,2.33-102.13,2.39-1.8-3.78-3.66-7.74-5.6-11.92-36.19-81.42-36.19-162.83,0-244.25,43.72-94.08,51.67-86.15-42.41-42.4-81.42,36.18-162.83,36.18-244.25,0-4.19-1.95-8.17-3.82-11.97-5.63,.05-26.08,.47-52.18,1.31-78.31,.05-.02,.09-.03,.14-.05,1.68-63.12,5.76-126.24,12-189.6,.14-2.02,.82-4.02,1.87-5.84,2.58-4.23,7.15-7.49,11.84-7.83,50.1-4.96,100.21-8.55,150.31-10.78,3.62-.16,7.24-.31,10.85-.46,2.08-.08,4.16-.17,6.24-.25,7.47-.28,14.93-.54,22.4-.76,0,0,0,0,0,0,63.19-1.9,126.37-1.62,189.56,.84,.01,.04,.03,.08,.04,.12,8.85,.3,17.72,.64,26.6,1.04,.28,.01,.56,.03,.84,.04,.7,.03,1.4,.07,2.1,.1,45.36,2.25,90.72,5.62,136.08,10.12,6.96,.48,12.96,6.96,13.68,13.68,17.76,181.68,17.76,363.36,0,545.04Z"/>
  </g>
</svg>