<?xml version="1.0" encoding="UTF-8"?>
<svg id="Layer_1" data-name="Layer 1" xmlns="http://www.w3.org/2000/svg" viewBox="0 0 16 16">
  <defs>
    <style>
      .cls-1 {
        fill: #fff;
      }
    </style>
  </defs>
  <path class="cls-1" d="M15.73,5.04c0-.79-.69-1.02-1.24-1.22-.14-.05-.3-.1-.49-.17-.93-.36-1.56-.99-1.93-1.93-.07-.19-.12-.35-.17-.49-.19-.55-.43-1.24-1.22-1.24h0c-.73,0-.98,.59-1.17,1.11l-.83-.52c-.14-.09-.32-.1-.47-.04L.58,3.86s-.03,.02-.04,.02c-.01,0-.03,0-.04,.02,0,0-.01,.01-.02,.02-.02,.02-.04,.03-.06,.05-.01,.01-.03,.03-.04,.04-.02,.02-.03,.04-.04,.07,0,.02-.02,.03-.03,.05,0,.02-.02,.05-.02,.08,0,.02-.01,.04-.01,.06,0,0,0,0,0,.01,0,.02,0,.05,0,.07,0,.02,0,.03,0,.05l1.22,7.78c.02,.14,.1,.26,.22,.34l5.07,3.38h0s0,0,0,0c.04,.03,.08,.04,.12,.06,0,0,0,0,.01,0,.05,.01,.1,.02,.15,.02,.04,0,.08,0,.11-.01,.01,0,.02,0,.03-.01,.02,0,.03,0,.05-.02l6.43-2.71c.16-.07,.28-.22,.3-.39l1.07-6.85c.36-.19,.66-.46,.66-.98ZM10.69,1.01c.09,0,.18,.36,.44,1.07,.24,.62,.57,1.14,1,1.56,0,0,.01,.01,.02,.02,.1,.1,.2,.19,.31,.27,.02,.02,.04,.03,.06,.05,.1,.07,.19,.14,.3,.21,.05,.03,.1,.06,.15,.09,.08,.05,.16,.09,.24,.14,.13,.06,.27,.12,.4,.18,0,0,.02,0,.03,.01,.53,.19,.87,.29,1,.37,.02,.01,.04,.02,.05,.04,.01,.01,.02,.02,.02,.03s0,.02-.02,.03c-.01,.01-.03,.02-.05,.04-.13,.07-.47,.17-1,.37,0,0,0,0,0,0-.18,.07-.34,.15-.51,.23-.04,.02-.09,.05-.13,.07-.12,.07-.24,.14-.35,.22-.04,.03-.08,.05-.11,.08-.13,.1-.25,.2-.37,.31,0,0-.02,.02-.03,.03-.44,.43-.78,.95-1.03,1.58-.26,.71-.35,1.07-.44,1.07s-.18-.36-.44-1.07c-.47-1.21-1.31-2.05-2.52-2.52-1.42-.52-1.42-.36,0-.87,1.21-.47,2.05-1.31,2.52-2.52,.03-.08,.06-.16,.08-.23,.2-.56,.28-.83,.35-.83Zm-3.58,6.73L1.86,4.41,8.38,1.59l.77,.49c-.38,.74-.96,1.26-1.77,1.57-.19,.07-.35,.12-.49,.17-.55,.19-1.24,.43-1.24,1.22,0,.79,.69,1.02,1.24,1.22,.14,.05,.3,.1,.49,.17,.45,.17,.83,.41,1.14,.71l-1.41,.61Zm5.92,4.68l-5.46,2.3v-6.07l1.56-.68c.06,.12,.12,.24,.17,.37,.07,.19,.12,.35,.17,.49,.19,.55,.43,1.24,1.22,1.24s1.02-.69,1.22-1.24c.05-.14,.1-.3,.17-.49,.36-.92,.98-1.55,1.9-1.91l-.94,5.99Z"/>
</svg>